<?xml version="1.0" standalone="no"?>
<!DOCTYPE svg PUBLIC "-//W3C//DTD SVG 20010904//EN"
 "http://www.w3.org/TR/2001/REC-SVG-20010904/DTD/svg10.dtd">
<svg version="1.0" xmlns="http://www.w3.org/2000/svg"
 width="1024.000000pt" height="1024.000000pt" viewBox="0 0 1024.000000 1024.000000"
 preserveAspectRatio="xMidYMid meet">

<g transform="translate(0.000000,1024.000000) scale(0.100000,-0.100000)"
fill="#000000" stroke="none">
<path d="M4843 8700 c-444 -43 -863 -200 -1268 -473 -845 -573 -1286 -1602
-1114 -2607 67 -392 224 -769 457 -1092 30 -43 59 -78 64 -78 4 0 8 523 8
1163 0 731 4 1186 10 1227 15 93 78 218 145 285 65 64 174 121 263 134 62 10
153 1 208 -19 14 -6 27 -10 30 -10 2 0 4 39 4 88 0 99 15 162 55 242 83 166
232 260 409 260 49 0 101 -6 126 -15 23 -8 44 -15 46 -15 2 0 4 29 4 63 0 79
31 202 67 270 38 71 145 176 213 209 179 85 376 55 521 -80 70 -64 115 -132
142 -215 20 -61 20 -83 20 -1129 1 -1216 9 -1105 -90 -1134 -43 -13 -77 -15
-142 -10 -124 10 -250 33 -333 61 -40 14 -76 25 -80 25 -4 0 -16 -17 -27 -37
-33 -65 -98 -130 -162 -162 -140 -70 -286 -66 -480 14 -12 4 -23 -6 -43 -39
-15 -25 -47 -64 -71 -87 -104 -98 -195 -130 -375 -134 l-125 -3 -3 -152 -3
-152 22 7 c44 14 223 9 287 -8 149 -40 284 -138 355 -258 38 -66 48 -124 25
-147 -8 -8 -47 -12 -110 -12 -94 0 -99 1 -121 27 -45 55 -83 86 -137 112 -50
23 -66 26 -170 26 -63 0 -123 -3 -133 -8 -18 -7 -19 -21 -15 -245 4 -220 6
-241 28 -297 22 -58 89 -167 110 -180 5 -3 32 1 60 9 117 35 271 30 410 -13
177 -55 354 -218 432 -396 26 -58 49 -141 62 -216 l6 -36 103 -22 c123 -26
287 -48 382 -53 l69 -3 44 80 c24 44 67 112 95 150 49 66 613 774 626 785 3 3
18 21 32 40 74 99 233 276 287 320 69 55 122 81 215 106 147 40 257 116 312
216 28 49 30 61 30 153 0 84 -4 107 -23 147 -57 115 -169 193 -293 205 -83 7
-187 -22 -251 -70 -68 -51 -124 -143 -143 -234 -40 -187 -72 -264 -163 -382
-149 -195 -369 -310 -597 -313 -134 -2 -215 39 -256 127 -31 67 -19 155 29
208 46 52 155 74 226 47 71 -27 204 29 293 123 67 71 86 111 122 257 72 292
223 473 473 566 99 36 273 45 381 19 129 -31 256 -103 336 -189 14 -14 28 -26
32 -26 13 0 100 143 154 255 116 239 160 454 135 660 -24 204 -83 378 -175
514 -97 144 -210 215 -433 271 -87 22 -111 94 -50 145 30 25 37 27 95 21 351
-36 681 -265 833 -580 80 -165 105 -303 98 -539 -4 -117 -11 -179 -32 -271
-65 -281 -194 -559 -372 -799 l-64 -87 0 -71 c0 -168 -74 -350 -193 -476 -120
-127 -186 -169 -412 -262 -82 -34 -157 -67 -166 -74 -8 -7 -82 -95 -163 -197
-81 -102 -171 -215 -201 -251 -48 -59 -329 -414 -428 -541 -22 -27 -37 -51
-35 -53 2 -2 51 2 108 10 738 104 1380 507 1796 1127 210 313 369 709 434
1078 32 178 39 530 15 723 -54 447 -245 891 -494 1150 -136 141 -247 215 -401
267 -82 28 -270 38 -362 20 -247 -48 -431 -235 -493 -500 -20 -87 -20 -323 0
-408 26 -109 82 -193 150 -223 39 -17 43 -17 111 1 100 26 159 13 216 -47 34
-36 48 -73 48 -129 0 -63 -20 -103 -74 -151 -52 -46 -105 -63 -196 -63 -147 0
-286 63 -405 185 -132 133 -207 308 -236 548 -30 258 57 568 221 786 176 233
434 372 720 387 59 4 125 2 150 -4 l45 -11 -35 30 c-56 48 -217 152 -335 218
-275 153 -592 258 -922 307 -127 18 -469 26 -600 14z m1722 -1579 c185 -86
323 -322 367 -628 15 -103 2 -164 -42 -205 -37 -34 -61 -35 -95 -5 -23 19 -28
34 -36 107 -25 225 -156 487 -284 566 -89 55 -115 83 -115 122 0 23 8 44 23
60 19 20 29 23 68 20 25 -3 77 -19 114 -37z"/>
<path d="M4715 8026 c-37 -16 -70 -52 -84 -89 -8 -19 -11 -316 -11 -930 l0
-902 49 3 c28 2 81 -5 127 -18 43 -11 99 -22 124 -23 l45 -2 0 926 0 925 -28
42 c-47 72 -145 102 -222 68z m215 -92 c0 -8 -19 -13 -24 -6 -3 5 1 9 9 9 8 0
15 -2 15 -3z"/>
<path d="M4097 7486 c-49 -18 -72 -39 -97 -90 -20 -41 -20 -60 -20 -763 l0
-721 68 -5 c37 -2 92 -10 122 -17 62 -15 93 -10 130 21 l25 21 3 707 c2 461
-1 718 -7 741 -18 62 -100 121 -165 120 -12 -1 -38 -7 -59 -14z"/>
<path d="M3470 6930 c-82 -15 -127 -67 -140 -162 -12 -77 -13 -1058 -2 -1075
12 -19 208 -11 247 9 39 21 81 66 94 101 7 19 11 195 11 515 l0 487 -23 40
c-35 62 -116 99 -187 85z"/>
<path d="M3650 3873 c-59 -10 -54 -18 46 -80 120 -75 403 -228 409 -221 11 12
-44 117 -86 162 -97 106 -240 160 -369 139z"/>
<path d="M5533 2811 c-105 -36 -166 -110 -186 -225 l-11 -64 -53 -5 c-70 -7
-76 -12 -68 -56 15 -85 24 -101 60 -101 68 0 65 12 65 -245 0 -129 4 -245 10
-259 12 -33 45 -49 95 -48 31 1 46 9 68 32 l27 30 0 245 0 245 70 0 c67 0 71
1 81 27 19 50 23 114 8 124 -8 5 -47 9 -88 9 l-74 0 6 37 c10 62 36 87 102 98
51 9 60 14 71 40 21 49 17 101 -8 119 -30 21 -110 20 -175 -3z"/>
<path d="M5811 2776 c-55 -30 -67 -106 -25 -155 22 -27 32 -31 76 -31 41 0 54
5 79 29 83 84 -26 215 -130 157z"/>
<path d="M3170 2517 c-59 -20 -61 -30 -58 -359 l3 -296 24 -26 c31 -33 106
-37 142 -7 23 19 24 25 29 198 5 153 9 184 25 213 27 45 60 67 124 83 63 16
84 38 107 113 17 51 17 54 -1 74 -43 48 -170 12 -221 -62 l-29 -42 -5 39 c-8
61 -72 94 -140 72z"/>
<path d="M3934 2519 c-157 -20 -232 -114 -139 -175 25 -16 29 -16 93 5 37 12
90 21 119 21 44 0 58 -5 88 -31 25 -22 35 -39 35 -60 l0 -29 -93 0 c-204 0
-314 -66 -325 -195 -5 -66 9 -111 53 -162 79 -92 254 -114 358 -45 28 19 28
19 59 -9 41 -39 98 -40 135 -3 l25 25 -4 227 c-3 213 -5 230 -26 274 -60 123
-199 180 -378 157z m178 -416 c10 -9 18 -30 18 -49 0 -63 -90 -109 -164 -84
-63 20 -87 88 -46 125 40 36 156 41 192 8z"/>
<path d="M6872 2518 c-62 -16 -63 -23 -60 -356 l3 -300 24 -26 c34 -36 111
-37 146 -1 24 24 25 28 25 182 0 87 5 175 11 197 14 50 59 91 118 106 25 7 53
14 62 16 20 5 69 111 69 147 0 36 -31 50 -95 45 -60 -5 -103 -32 -145 -90
l-29 -39 1 42 c0 33 -5 46 -23 60 -29 22 -66 27 -107 17z"/>
<path d="M4669 2507 c-88 -33 -174 -112 -212 -195 -17 -37 -22 -66 -22 -142 0
-89 2 -99 34 -158 38 -71 99 -129 169 -164 37 -18 64 -23 127 -23 70 0 86 4
128 28 26 15 48 33 48 40 1 7 5 -19 9 -58 5 -38 4 -101 0 -140 -8 -62 -13 -73
-44 -102 -31 -28 -43 -33 -87 -33 -71 0 -117 24 -148 78 -60 103 -118 129
-177 79 -52 -45 -26 -145 60 -231 167 -167 456 -127 564 78 l27 51 3 435 3
435 -22 18 c-46 37 -169 9 -169 -38 0 -10 -16 -4 -50 17 -43 27 -62 32 -128
35 -48 2 -90 -2 -113 -10z m190 -171 c163 -85 107 -336 -74 -336 -48 0 -88 22
-122 66 -39 51 -45 147 -13 199 47 76 139 107 209 71z"/>
<path d="M5808 2505 c-15 -8 -32 -24 -38 -35 -13 -24 -14 -569 -1 -603 17 -43
39 -57 92 -57 40 0 55 5 74 25 l25 24 0 304 0 304 -24 22 c-31 29 -92 36 -128
16z"/>
<path d="M6279 2505 c-89 -32 -151 -93 -197 -193 -22 -47 -27 -71 -27 -142 0
-76 3 -92 32 -151 43 -86 119 -158 198 -188 125 -47 310 -13 380 71 l26 31
-38 39 c-48 49 -71 55 -120 30 -85 -44 -162 -40 -219 10 -28 25 -64 75 -64 90
0 2 104 3 230 4 127 0 234 4 238 8 4 4 7 40 7 79 -1 127 -71 239 -187 297 -54
26 -71 30 -142 29 -45 0 -97 -6 -117 -14z m188 -166 c31 -19 63 -64 63 -89 0
-6 -49 -10 -141 -10 l-140 0 6 23 c4 12 24 39 45 60 34 32 46 37 86 37 30 0
59 -8 81 -21z"/>
</g>
</svg>
